<svg width="543" height="520" viewBox="0 0 543 520" fill="none" xmlns="http://www.w3.org/2000/svg">
<path d="M542.999 134.848V204.627H473.907L472.744 134.848H542.999Z" fill="#838383"/>
<path d="M352.961 340.351L110.487 336.892C106.328 336.833 103.086 332.774 103.431 328.059L114.638 175.071C114.927 171.118 117.673 167.96 121.145 167.596C197.265 159.61 273.662 155.032 350.098 153.875C354.05 153.815 357.308 157.413 357.383 161.908L360.221 332.041C360.298 336.645 357.01 340.409 352.961 340.351Z" fill="#BFBFBF"/>
<path d="M324.16 434.268C313.67 445.843 300.416 455.341 285.832 461.738C272.634 467.502 257.537 468.269 246.316 479.226C241.554 483.88 238.582 491.165 237.283 501.375C212.98 501.447 184.691 502.713 163.709 503.869C169.229 489.827 165.117 469.455 162.925 460.844C161.163 453.879 156.131 438.592 154.51 434.072C150.397 422.598 151.013 421.379 150.866 407.609L252.879 409.06C246.881 415.599 243.779 424.012 243.489 434.768C243.466 435.649 244.161 436.382 245.04 436.405C245.966 436.386 246.656 435.732 246.678 434.854C247.32 411.091 261.901 402.895 284.497 395.462C286.97 394.647 290.012 394.07 292.638 393.561C298.447 392.434 304.454 391.27 308.703 388.06C314.538 383.682 317.703 374.246 320.953 368.593C325.06 361.422 332.418 353.857 340.537 355.556C345.38 356.573 348.752 358.719 350.81 362.086C348.886 359.667 345.851 359.925 343.757 361.529C341.248 363.446 336.145 372.666 334.794 377.492C333.327 382.723 333.837 387.907 336.193 391.711C338.467 395.388 342.62 397.568 346.541 397.463C340.384 411.611 330.343 427.459 324.16 434.268ZM474.015 116.013C473.887 107.79 467.839 101.195 460.522 101.195H460.374C415.729 101.871 370.916 103.287 326.082 105.38C324.919 96.988 320.879 89.4412 313.858 82.6346C324.479 73.153 339.365 58.9172 347.822 51.5393C348.478 50.9474 348.541 49.9327 347.971 49.2773C347.4 48.6218 346.385 48.5589 345.708 49.1291C336.451 57.2519 321.45 71.6127 311.49 80.4572C284.555 57.0802 252.362 59.4265 233.452 79.3156C226.046 69.5876 211.922 49.9933 204.775 40.6947C204.225 39.9969 203.231 39.8705 202.533 40.4202C201.835 40.9487 201.708 41.9633 202.237 42.6394C209.014 51.381 224.193 72.4539 231.295 81.7466C224.274 90.118 219.452 100.836 218.162 111.828C172.756 115.125 127.457 119.121 82.4321 123.835C75.897 124.532 70.7793 130.346 70.2718 137.66L55.4044 340.424C56.6101 338.565 57.8156 336.725 58.9995 334.865L73.4441 137.871C73.8669 132.121 77.7795 127.534 82.7703 127.005C204.562 114.229 331.947 106.375 460.417 104.366C466.042 104.217 470.715 109.545 470.842 116.056L475.516 396.802C475.594 403.306 471.113 409.013 465.154 408.915L345.454 407.182C348.358 403.312 358.055 380.266 356.092 368.011C355.102 359.501 349.671 354.218 341.182 352.432C331.539 350.402 322.973 358.647 318.194 366.996C314.905 372.66 311.917 381.667 306.773 385.514C303.115 388.283 297.489 389.383 292.033 390.44C279.837 392.792 265.85 398.104 256.081 405.913L88.3959 403.546C87.5497 404.603 86.704 405.638 85.837 406.674L147.674 407.562C147.91 421.382 147.079 422.824 151.502 435.148C152.783 438.669 157.95 454.221 159.834 461.636C162.013 470.218 166.221 490.976 160.173 504.062C150.699 504.611 143 505.097 138.263 505.414C137.441 505.456 136.689 506.214 136.783 507.148C137.217 512.007 137.358 511.044 137.819 516.026C137.883 516.829 138.559 517.442 139.363 517.463C140.378 517.485 258.961 520 258.745 520C259.644 520 260.377 519.263 260.331 518.288C259.816 511.462 260.346 510.036 259.803 503.152C259.76 502.349 259.084 501.715 258.28 501.694C252.824 501.482 246.818 501.377 240.516 501.377C241.742 492.139 244.365 485.586 248.552 481.506C259.181 471.107 273.753 470.528 287.105 464.658C302.099 458.084 315.74 448.318 326.526 436.417C330.459 432.083 337.48 422.148 343.804 410.352C346.08 410.385 325.327 410.089 465.301 412.086C473.067 412.086 478.844 404.854 478.688 396.76L474.015 116.013ZM52.7607 397.183C53.2471 398.472 53.9028 399.698 54.6856 400.798C55.2772 398.028 54.8756 397.436 52.7607 397.183Z" fill="#838383"/>
<path d="M416.391 208.758C424.122 207.521 430.784 202.497 434.212 195.312C443.037 176.82 425.966 156.318 406.146 161.668C398.258 163.805 391.433 169.944 389.325 178.874C385.578 194.75 397.608 211.75 416.391 208.758ZM392.431 179.605C394.203 172.096 399.873 166.668 406.979 164.748C418.311 161.682 432.021 168.882 433.157 183.385H417.089C416.208 183.385 415.493 184.097 415.493 184.978C415.493 185.86 416.208 186.572 417.089 186.572H433.172C433.001 189.126 432.429 191.644 431.333 193.94C428.356 200.176 422.582 204.538 415.887 205.607C398.165 208.431 389.555 191.796 392.431 179.605Z" fill="#838383"/>
<path d="M431.319 246.498C422.537 235.97 405.583 235.427 396.443 246.754C390.681 253.899 389.214 265.132 397.588 276.475C405.142 286.7 426.625 286.873 434.357 270.666C438.084 262.856 436.863 253.144 431.319 246.498ZM431.478 269.293C428.626 275.269 422.893 279.648 415.69 280.258V266.254C415.69 265.373 414.975 264.661 414.094 264.661C413.213 264.661 412.499 265.373 412.499 266.254V280.31C407.86 280.035 402.924 278.331 400.156 274.58C392.853 264.691 393.942 254.936 398.928 248.757C406.859 238.919 421.49 239.699 428.869 248.542C433.555 254.157 434.628 262.691 431.478 269.293Z" fill="#838383"/>
<path d="M397.128 316.567C396.247 316.587 395.55 317.318 395.572 318.2C395.593 319.067 396.302 319.754 397.165 319.754C397.378 319.754 430.843 318.952 431.057 318.938C431.937 318.918 432.634 318.187 432.613 317.306C432.592 316.424 431.791 315.697 430.98 315.751L397.128 316.567Z" fill="#838383"/>
<path d="M439.875 337.516L388.236 338.759C387.356 338.779 386.659 339.51 386.68 340.392C386.701 341.259 387.41 341.946 388.274 341.946C388.495 341.946 439.731 340.712 439.951 340.703C440.832 340.683 441.529 339.952 441.508 339.07C441.487 338.191 440.695 337.538 439.875 337.516Z" fill="#838383"/>
<path d="M190.719 263.196L189.705 219.8C189.625 216.305 185.482 216.15 184.344 218.245L154.033 264.332C152.447 266.55 153.27 269.019 156.103 268.952L185.045 268.277L185.335 280.688C185.43 284.698 191.219 284.551 191.124 280.553L190.834 268.142L198.863 267.955C201.933 267.884 201.864 264.792 200.679 263.663C199.476 262.526 198.169 263.208 190.719 263.196ZM160.188 263.908L184.095 227.588L184.93 263.331L160.188 263.908Z" fill="#838383"/>
<path d="M231.552 215.559C214.002 215.967 209.238 232.088 209.651 249.776C210.063 267.377 215.587 283.251 233.123 282.844C250.627 282.436 255.435 266.255 255.024 248.624C254.614 231.031 249.088 215.151 231.552 215.559ZM233.003 277.711C218.911 278.042 215.952 263.6 215.624 249.543C215.292 235.29 217.479 221.021 231.671 220.691C245.865 220.362 248.715 234.508 249.048 248.763C249.38 262.977 247.198 277.382 233.003 277.711Z" fill="#838383"/>
<path d="M310.783 260.395L302.754 260.582L301.741 217.186C301.661 213.694 297.514 213.54 296.38 215.631L266.068 261.72C264.518 263.882 265.254 266.401 268.138 266.34L297.081 265.663L297.37 278.074C297.465 282.063 303.256 281.963 303.159 277.939L302.869 265.528L310.898 265.341C313.973 265.268 313.896 262.173 312.714 261.052C312.235 260.597 311.591 260.377 310.783 260.395ZM272.223 261.295L296.13 224.974L296.965 260.718L272.223 261.295Z" fill="#838383"/>
<path d="M1.85349 78.2886C0.978894 78.1523 0.163992 78.7325 0.0215263 79.6036C-0.122031 80.4726 0.467629 81.2923 1.33708 81.4347C14.6355 83.6167 27.2927 89.1286 37.9404 97.3757C38.6247 97.9062 39.6349 97.7946 40.1781 97.0907C40.7182 96.3951 40.5911 95.3937 39.8941 94.853C28.8283 86.284 15.6746 80.5554 1.85349 78.2886Z" fill="#838383"/>
<path d="M54.3586 72.7416C54.8611 73.4615 55.8535 73.6391 56.5788 73.1379C57.3017 72.6342 57.4793 71.6391 56.9753 70.9167L18.8044 16.1824C18.3005 15.4598 17.3049 15.2843 16.5842 15.786C15.8613 16.2897 15.6837 17.2848 16.1877 18.0072L54.3586 72.7416Z" fill="#838383"/>
<path d="M80.8627 62.8947C81.7125 62.6634 82.2134 61.7861 81.9811 60.9356C78.3741 47.7444 80.9527 33.2114 88.8761 22.0617C89.3862 21.3454 89.2179 20.3482 88.5002 19.8385C87.7826 19.3327 86.7871 19.4979 86.276 20.2163C77.8031 32.1359 75.048 47.6722 78.9039 61.7779C79.1388 62.6345 80.0255 63.1284 80.8627 62.8947Z" fill="#838383"/>
<path d="M112.99 371.457C111.869 371.457 105.186 382.153 104.107 383.59C86.8895 406.262 54.349 445.079 26.4718 474.932C33.9373 455.843 41.1698 436.649 48.5082 417.497C51.0701 410.85 52.8414 408.157 54.6839 400.798C55.2756 398.028 54.8739 397.436 52.7591 397.183C51.4459 397.034 20.467 394.914 20.2539 394.9C125.136 232.352 13.0249 406.204 78.6871 304.361C75.3878 325.162 76.9951 345.73 73.6958 366.531C86.8081 368.159 99.8988 369.807 112.99 371.457Z" fill="#838383"/>
<path d="M383.599 21.2495C389.949 30.3138 388.396 44.1184 379.97 51.2956C365.685 63.4631 342.004 53.1542 340.675 36.1991C338.782 12.0316 370.561 2.63779 383.599 21.2495Z" fill="#838383"/>
<path d="M176.724 3.14416C186.165 -2.63461 199.855 -0.237474 206.505 8.60915C211.771 15.6144 212.284 25.6764 208.321 33.4922C201.73 46.4914 187.54 49.9463 177.983 44.407C160.595 34.3284 162.961 11.5681 176.724 3.14416Z" fill="#838383"/>
</svg>
