<svg width="30" height="30" viewBox="0 0 30 30" fill="none" xmlns="http://www.w3.org/2000/svg">
<path d="M13.3762 3.625C13.3762 3.19402 13.5474 2.7807 13.8522 2.47595C14.1569 2.17121 14.5702 2 15.0012 2C15.4322 2 15.8455 2.17121 16.1503 2.47595C16.455 2.7807 16.6262 3.19402 16.6262 3.625V15.2567L21.8961 9.98687L24.1938 12.2846L15.0012 21.4772L5.80859 12.2862L8.10634 9.9885L13.3762 15.2567V3.625Z" fill="white"/>
<path d="M2 18.25H5.25V24.75H24.75V18.25H28V24.75C28 25.612 27.6576 26.4386 27.0481 27.0481C26.4386 27.6576 25.612 28 24.75 28H5.25C4.38805 28 3.5614 27.6576 2.9519 27.0481C2.34241 26.4386 2 25.612 2 24.75V18.25Z" fill="white"/>
</svg>
