<svg width="30" height="30" viewBox="0 0 30 30" fill="none" xmlns="http://www.w3.org/2000/svg">
<path fill-rule="evenodd" clip-rule="evenodd" d="M17.7269 8.4541C17.3653 8.4541 17.0184 8.59777 16.7627 8.8535C16.5069 9.10923 16.3633 9.45608 16.3633 9.81774V20.7268C16.3633 21.0885 16.5069 21.4353 16.7627 21.6911C17.0184 21.9468 17.3653 22.0905 17.7269 22.0905H23.1815C23.5431 22.0905 23.89 21.9468 24.1457 21.6911C24.4014 21.4353 24.5451 21.0885 24.5451 20.7268V9.81774C24.5451 9.45608 24.4014 9.10923 24.1457 8.8535C23.89 8.59777 23.5431 8.4541 23.1815 8.4541H17.7269ZM21.8178 11.1814H19.0906V19.3632H21.8178V11.1814Z" fill="white"/>
<path d="M6.81676 8.4541C6.4551 8.4541 6.10826 8.59777 5.85253 8.8535C5.59679 9.10923 5.45312 9.45608 5.45312 9.81774C5.45312 10.1794 5.59679 10.5262 5.85253 10.782C6.10826 11.0377 6.4551 11.1814 6.81676 11.1814H12.2713C12.633 11.1814 12.9798 11.0377 13.2355 10.782C13.4913 10.5262 13.6349 10.1794 13.6349 9.81774C13.6349 9.45608 13.4913 9.10923 13.2355 8.8535C12.9798 8.59777 12.633 8.4541 12.2713 8.4541H6.81676ZM6.81676 13.9086C6.4551 13.9086 6.10826 14.0523 5.85253 14.308C5.59679 14.5638 5.45312 14.9106 5.45312 15.2723C5.45312 15.6339 5.59679 15.9808 5.85253 16.2365C6.10826 16.4923 6.4551 16.6359 6.81676 16.6359H12.2713C12.633 16.6359 12.9798 16.4923 13.2355 16.2365C13.4913 15.9808 13.6349 15.6339 13.6349 15.2723C13.6349 14.9106 13.4913 14.5638 13.2355 14.308C12.9798 14.0523 12.633 13.9086 12.2713 13.9086H6.81676ZM5.45312 20.7268C5.45312 20.3652 5.59679 20.0183 5.85253 19.7626C6.10826 19.5069 6.4551 19.3632 6.81676 19.3632H12.2713C12.633 19.3632 12.9798 19.5069 13.2355 19.7626C13.4913 20.0183 13.6349 20.3652 13.6349 20.7268C13.6349 21.0885 13.4913 21.4353 13.2355 21.6911C12.9798 21.9468 12.633 22.0905 12.2713 22.0905H6.81676C6.4551 22.0905 6.10826 21.9468 5.85253 21.6911C5.59679 21.4353 5.45312 21.0885 5.45312 20.7268Z" fill="white"/>
<path fill-rule="evenodd" clip-rule="evenodd" d="M4.09091 3C3.00593 3 1.96539 3.43101 1.1982 4.1982C0.431005 4.96539 0 6.00593 0 7.09091V23.4545C0 24.5395 0.431005 25.5801 1.1982 26.3473C1.96539 27.1145 3.00593 27.5455 4.09091 27.5455H25.9091C26.9941 27.5455 28.0346 27.1145 28.8018 26.3473C29.569 25.5801 30 24.5395 30 23.4545V7.09091C30 6.00593 29.569 4.96539 28.8018 4.1982C28.0346 3.43101 26.9941 3 25.9091 3H4.09091ZM25.9091 5.72727H4.09091C3.72925 5.72727 3.3824 5.87094 3.12667 6.12667C2.87094 6.3824 2.72727 6.72925 2.72727 7.09091V23.4545C2.72727 23.8162 2.87094 24.1631 3.12667 24.4188C3.3824 24.6745 3.72925 24.8182 4.09091 24.8182H25.9091C26.2707 24.8182 26.6176 24.6745 26.8733 24.4188C27.1291 24.1631 27.2727 23.8162 27.2727 23.4545V7.09091C27.2727 6.72925 27.1291 6.3824 26.8733 6.12667C26.6176 5.87094 26.2707 5.72727 25.9091 5.72727Z" fill="white"/>
</svg>
