<svg width="30" height="30" viewBox="0 0 30 30" fill="none" xmlns="http://www.w3.org/2000/svg">
<path d="M23.3167 24.8594C24.1182 24.8594 24.8046 24.5743 25.3758 24.004C25.9471 23.4337 26.2323 22.7473 26.2313 21.9448C26.2303 21.1423 25.9452 20.4564 25.3758 19.8871C24.8065 19.3178 24.1201 19.0322 23.3167 19.0302C22.5132 19.0283 21.8273 19.3139 21.259 19.8871C20.6906 20.4603 20.405 21.1462 20.4021 21.9448C20.3992 22.7434 20.6848 23.4298 21.259 24.004C21.8332 24.5781 22.5191 24.8633 23.3167 24.8594ZM23.0252 29.2313C22.6852 29.2313 22.3879 29.122 22.1334 28.9034C21.8788 28.6848 21.7146 28.4055 21.6408 28.0654L21.4222 27.0453C21.1308 26.9239 20.8578 26.7966 20.6032 26.6635C20.3487 26.5304 20.0873 26.3662 19.8192 26.171L18.7627 26.4989C18.4469 26.596 18.1375 26.5839 17.8344 26.4624C17.5312 26.341 17.2942 26.1467 17.1232 25.8795L16.8317 25.3695C16.6617 25.078 16.601 24.7622 16.6496 24.4222C16.6982 24.0822 16.856 23.8029 17.1232 23.5843L17.9247 22.8921C17.8761 22.6006 17.8518 22.2848 17.8518 21.9448C17.8518 21.6048 17.8761 21.289 17.9247 20.9976L17.1232 20.3054C16.856 20.0868 16.6982 19.8138 16.6496 19.4864C16.601 19.159 16.6617 18.849 16.8317 18.5566L17.1596 18.0101C17.3296 17.7429 17.5604 17.5486 17.8518 17.4272C18.1433 17.3058 18.4469 17.2936 18.7627 17.3908L19.8192 17.7187C20.0864 17.5244 20.3477 17.3607 20.6032 17.2276C20.8587 17.0945 21.1317 16.9667 21.4222 16.8443L21.6408 15.7877C21.7137 15.4477 21.8774 15.1747 22.1319 14.9687C22.3865 14.7628 22.6842 14.6593 23.0252 14.6583H23.6082C23.9482 14.6583 24.246 14.7676 24.5015 14.9862C24.757 15.2048 24.9207 15.4841 24.9926 15.8242L25.2112 16.8443C25.5026 16.9657 25.7756 17.093 26.0302 17.2261C26.2847 17.3592 26.5461 17.5234 26.8142 17.7187L27.8707 17.3908C28.1865 17.2936 28.4964 17.3058 28.8005 17.4272C29.1046 17.5486 29.3411 17.7429 29.5102 18.0101L29.8016 18.5202C29.9717 18.8116 30.0324 19.1274 29.9838 19.4674C29.9352 19.8074 29.7774 20.0868 29.5102 20.3054L28.7087 20.9976C28.7573 21.289 28.7815 21.6048 28.7815 21.9448C28.7815 22.2848 28.7573 22.6006 28.7087 22.8921L29.5102 23.5843C29.7774 23.8029 29.9352 24.0763 29.9838 24.4047C30.0324 24.7331 29.9717 25.0425 29.8016 25.333L29.4738 25.8795C29.3037 26.1467 29.073 26.341 28.7815 26.4624C28.4901 26.5839 28.1865 26.596 27.8707 26.4989L26.8142 26.171C26.547 26.3653 26.2862 26.529 26.0316 26.6621C25.7771 26.7952 25.5036 26.9229 25.2112 27.0453L24.9926 28.1019C24.9197 28.4419 24.756 28.7154 24.5015 28.9223C24.2469 29.1293 23.9492 29.2322 23.6082 29.2313H23.0252ZM2.91459 23.4021V5.91459V12.1809V11.7438V23.4021ZM2.91459 26.3167C2.11308 26.3167 1.42718 26.0315 0.856889 25.4613C0.286601 24.891 0.000971529 24.2046 0 23.4021V5.91459C0 5.11308 0.28563 4.42718 0.856889 3.85689C1.42815 3.2866 2.11405 3.00097 2.91459 3H10.4561C10.8447 3 11.2153 3.07286 11.568 3.21859C11.9207 3.36432 12.2301 3.57077 12.4963 3.83794L14.5729 5.91459H26.2313C27.0328 5.91459 27.7192 6.20022 28.2904 6.77147C28.8617 7.34273 29.1468 8.02863 29.1459 8.82917V11.7438C29.1459 12.1567 29.006 12.503 28.7262 12.7828C28.4464 13.0626 28.1005 13.202 27.6886 13.2011C27.2766 13.2001 26.9308 13.0602 26.651 12.7814C26.3712 12.5025 26.2313 12.1567 26.2313 11.7438V8.82917H13.3707L10.4561 5.91459H2.91459V23.4021H13.1156C13.5285 23.4021 13.8749 23.542 14.1547 23.8218C14.4345 24.1016 14.5739 24.4475 14.5729 24.8594C14.572 25.2713 14.4321 25.6177 14.1532 25.8984C13.8744 26.1792 13.5285 26.3186 13.1156 26.3167H2.91459Z" fill="white"/>
</svg>
