<svg width="20" height="25" viewBox="0 0 20 25" fill="none" xmlns="http://www.w3.org/2000/svg">
<path d="M12.3969 5.80001C12.3969 4.52697 11.8912 3.30607 10.991 2.40589C10.0908 1.50571 8.86992 1 7.59688 1C6.32384 1 5.10294 1.50571 4.20276 2.40589C3.30259 3.30607 2.79688 4.52697 2.79688 5.80001" stroke="white" stroke-width="1.5" stroke-linecap="round" stroke-linejoin="round"/>
<path d="M9.18159 9.30542V6.23702C9.17004 5.81074 8.99259 5.4058 8.68701 5.10838C8.38142 4.81095 7.97182 4.64453 7.54539 4.64453C7.11895 4.64453 6.70936 4.81095 6.40377 5.10838C6.09818 5.4058 5.92073 5.81074 5.90919 6.23702V15.7074L4.14158 13.9602C3.95746 13.7794 3.73766 13.639 3.49621 13.5479C3.25476 13.4567 2.99697 13.417 2.73929 13.4311C2.48161 13.4452 2.2297 13.5129 1.99965 13.6298C1.7696 13.7468 1.56645 13.9104 1.40318 14.1102C1.14867 14.4234 1.00676 14.8129 1.00024 15.2164C0.993707 15.6199 1.12294 16.0138 1.36718 16.335L4.64558 20.649C5.38958 21.6282 5.76158 22.1178 6.20799 22.4982C6.89199 23.079 7.70799 23.4822 8.58879 23.6742C9.16479 23.799 9.78519 23.799 11.0248 23.799C13.3888 23.799 14.5708 23.799 15.5116 23.4426C16.2202 23.176 16.8647 22.7633 17.4035 22.2314C17.9422 21.6994 18.3631 21.0602 18.6388 20.355C19 19.4262 19 18.2586 19 15.9258V13.2702C18.9963 12.7583 18.8108 12.2643 18.4768 11.8764C18.1427 11.4885 17.6817 11.2318 17.176 11.1522L16.804 11.0922C16.6727 11.0694 16.5381 11.0755 16.4093 11.1099C16.2806 11.1443 16.1609 11.2063 16.0585 11.2915C15.9561 11.3768 15.8735 11.4833 15.8164 11.6037C15.7592 11.724 15.7289 11.8554 15.7276 11.9886M9.18159 9.30542L9.81159 8.99462C10.1152 8.84462 10.4536 8.74862 10.7836 8.82662C11.2567 8.93554 11.6791 9.20098 11.9825 9.57994C12.2859 9.9589 12.4524 10.4292 12.4552 10.9146M9.18159 9.30542V11.9886M15.7276 11.9886C15.7276 10.803 14.7508 9.84062 13.546 9.84062C12.9436 9.84062 12.4552 10.3218 12.4552 10.9146M15.7276 11.9886V13.0626M12.4552 10.9146V11.9886" stroke="white" stroke-width="1.5" stroke-linecap="round" stroke-linejoin="round"/>
</svg>
