<svg width="122" height="88" viewBox="0 0 122 88" fill="none" xmlns="http://www.w3.org/2000/svg">
<path fill-rule="evenodd" clip-rule="evenodd" d="M25.7543 63.8626C21.3403 70.1074 12.9973 76.8302 1.63906 82.4268C-1.31266 83.8813 0.0188648 88.3892 3.27724 87.973C27.142 84.9245 42.6101 74.3696 51.0569 58.6732C54.1985 52.8353 56.1723 46.6214 57.2234 40.2782C57.9165 36.0959 58.0995 32.9572 58.0995 29.3321C58.0995 13.1324 45.0953 0 29.0539 0C13.0124 0 0.0081832 13.1324 0.0081832 29.3321C0.0081832 45.5317 13.2199 58.6732 28.4022 58.6732C27.6012 60.8941 27.4088 61.5217 25.7543 63.8626ZM5.81732 29.3321C5.81732 16.3723 16.2207 5.86641 29.0539 5.86641C41.887 5.86641 52.2904 16.3723 52.2904 29.3321C52.2904 32.6608 52.1245 35.5048 51.494 39.31C50.5433 45.0472 48.7644 50.6474 45.9528 55.8721C38.4039 69.8999 25.2969 76.0968 20.0274 77.89C24.4499 74.4208 27.9769 70.8157 30.4825 67.2707C35.5053 60.1644 35.9994 52.7977 29.0539 52.7977C16.2207 52.7977 5.81732 42.2918 5.81732 29.3321ZM89.6548 63.8626C85.2408 70.1074 76.8978 76.8302 65.5395 82.4268C62.5878 83.8813 63.9193 88.3892 67.1777 87.973C91.0425 84.9245 106.511 74.3696 114.957 58.6732C118.099 52.8353 120.073 46.6214 121.124 40.2782C121.817 36.0959 122 32.9572 122 29.3321C122 13.1324 108.996 0 92.9543 0C76.9128 0 63.9087 13.1324 63.9087 29.3321C63.9087 45.5317 77.1203 58.6732 92.3026 58.6732C91.5017 60.8941 91.3093 61.5217 89.6548 63.8626ZM69.7178 29.3321C69.7178 16.3723 80.1211 5.86641 92.9543 5.86641C105.788 5.86641 116.191 16.3723 116.191 29.3321C116.191 32.6608 116.025 35.5048 115.394 39.31C114.444 45.0472 112.665 50.6474 109.853 55.8721C102.304 69.8999 89.1974 76.0968 83.9279 77.89C88.3504 74.4208 91.8774 70.8157 94.383 67.2707C99.4058 60.1644 99.8999 52.7977 92.9543 52.7977C80.1211 52.7977 69.7178 42.2918 69.7178 29.3321Z" fill="#E5F926"/>
</svg>
